<svg version="1.1" viewBox="0.0 0.0 180.0 180.0" fill="none" stroke="none" stroke-linecap="square" stroke-miterlimit="10" xmlns:xlink="http://www.w3.org/1999/xlink" xmlns="http://www.w3.org/2000/svg"><clipPath id="g86763e6256_2_0.0"><path d="m0 0l180.0 0l0 180.0l-180.0 0l0 -180.0z" clip-rule="nonzero"/></clipPath><g clip-path="url(#g86763e6256_2_0.0)"><path fill="#000000" fill-opacity="0.0" d="m0 0l180.0 0l0 180.0l-180.0 0z" fill-rule="evenodd"/><path fill="#ffffff" d="m169.40105 32.738327c-4.2785034 4.8755035 -33.929504 27.760502 -62.585503 56.0185c-28.655998 28.258003 -42.486496 44.775 -58.306995 56.316994c-15.820499 11.542007 -21.9895 -1.6914978 -25.372501 -7.263489c-3.3829994 -5.572006 -13.631499 -34.924507 -15.521999 -39.99901c-1.2935004 -6.9649963 4.9749994 -8.656494 7.7609997 -2.0894928c2.7859993 6.5669937 9.8505 27.660995 14.328001 37.809998c4.477501 10.149002 10.0494995 8.955002 18.009499 2.0894928c7.959999 -6.865494 21.094002 -22.685997 51.043503 -51.242493c29.949501 -28.5565 58.107994 -52.6355 64.674995 -56.8145c6.5670013 -4.179001 10.248505 0.29850006 5.970001 5.173998z" fill-rule="evenodd"/><path stroke="#ffffff" stroke-width="8.0" stroke-linejoin="round" stroke-linecap="butt" d="m169.40105 32.738327c-4.2785034 4.8755035 -33.929504 27.760502 -62.585503 56.0185c-28.655998 28.258003 -42.486496 44.775 -58.306995 56.316994c-15.820499 11.542007 -21.9895 -1.6914978 -25.372501 -7.263489c-3.3829994 -5.572006 -13.631499 -34.924507 -15.521999 -39.99901c-1.2935004 -6.9649963 4.9749994 -8.656494 7.7609997 -2.0894928c2.7859993 6.5669937 9.8505 27.660995 14.328001 37.809998c4.477501 10.149002 10.0494995 8.955002 18.009499 2.0894928c7.959999 -6.865494 21.094002 -22.685997 51.043503 -51.242493c29.949501 -28.5565 58.107994 -52.6355 64.674995 -56.8145c6.5670013 -4.179001 10.248505 0.29850006 5.970001 5.173998z" fill-rule="evenodd"/></g></svg>