<svg version="1.1" viewBox="0.0 0.0 85.0 60.0" fill="none" stroke="none" stroke-linecap="square" stroke-miterlimit="10" xmlns:xlink="http://www.w3.org/1999/xlink" xmlns="http://www.w3.org/2000/svg"><clipPath id="g530f8ce530_0_61.0"><path d="m0 0l85.0 0l0 60.0l-85.0 0l0 -60.0z" clip-rule="nonzero"/></clipPath><g clip-path="url(#g530f8ce530_0_61.0)"><path fill="#000000" fill-opacity="0.0" d="m0 0l85.0 0l0 60.0l-85.0 0z" fill-rule="evenodd"/><path fill="#000000" fill-opacity="0.0" d="m3.4133859 9.02341l0 0c0 -3.2961965 2.6720948 -5.9682918 5.9682918 -5.9682918l66.23665 0c1.5828857 0 3.1009445 0.6288004 4.220215 1.7480721c1.119278 1.1192718 1.7480774 2.63733 1.7480774 4.2202196l0 41.95318c0 3.296196 -2.6720963 5.968292 -5.968292 5.968292l-66.23665 0c-3.296197 0 -5.9682918 -2.6720963 -5.9682918 -5.968292z" fill-rule="evenodd"/><path stroke="#000000" stroke-width="4.0" stroke-linejoin="round" stroke-linecap="butt" d="m3.4133859 9.02341l0 0c0 -3.2961965 2.6720948 -5.9682918 5.9682918 -5.9682918l66.23665 0c1.5828857 0 3.1009445 0.6288004 4.220215 1.7480721c1.119278 1.1192718 1.7480774 2.63733 1.7480774 4.2202196l0 41.95318c0 3.296196 -2.6720963 5.968292 -5.968292 5.968292l-66.23665 0c-3.296197 0 -5.9682918 -2.6720963 -5.9682918 -5.968292z" fill-rule="evenodd"/><path fill="#000000" fill-opacity="0.0" d="m5.4028873 5.0446196l30.23622 22.677166" fill-rule="evenodd"/><path stroke="#000000" stroke-width="4.0" stroke-linejoin="round" stroke-linecap="butt" d="m5.4028873 5.0446196l30.23622 22.677166" fill-rule="evenodd"/><path fill="#000000" fill-opacity="0.0" d="m79.60236 5.0446196l-30.645672 22.866142" fill-rule="evenodd"/><path stroke="#000000" stroke-width="4.0" stroke-linejoin="round" stroke-linecap="butt" d="m79.60236 5.0446196l-30.645672 22.866142" fill-rule="evenodd"/><path fill="#000000" fill-opacity="0.0" d="m28.248062 29.073174l9.757473 -1.5540867l4.494465 -8.792053l4.494461 8.792053l9.757477 1.5540867l-6.979744 6.987873l1.5359879 9.752533l-8.808182 -4.4733124l-8.808182 4.4733124l1.5359879 -9.752533z" fill-rule="evenodd"/><path stroke="#000000" stroke-width="4.0" stroke-linejoin="round" stroke-linecap="butt" d="m28.248062 29.073174l9.757473 -1.5540867l4.494465 -8.792053l4.494461 8.792053l9.757477 1.5540867l-6.979744 6.987873l1.5359879 9.752533l-8.808182 -4.4733124l-8.808182 4.4733124l1.5359879 -9.752533z" fill-rule="evenodd"/></g></svg>