<svg version="1.1" viewBox="0.0 0.0 300.0 300.0" fill="none" stroke="none" stroke-linecap="square" stroke-miterlimit="10" xmlns:xlink="http://www.w3.org/1999/xlink" xmlns="http://www.w3.org/2000/svg"><clipPath id="g8c785b85f2_0_8.0"><path d="m0 0l300.0 0l0 300.0l-300.0 0l0 -300.0z" clip-rule="nonzero"/></clipPath><g clip-path="url(#g8c785b85f2_0_8.0)"><path fill="#000000" fill-opacity="0.0" d="m0 0l300.0 0l0 300.0l-300.0 0z" fill-rule="evenodd"/><path fill="#000000" fill-opacity="0.0" d="m278.10266 63.028202l-40.777954 -40.777954c-9.1552734E-5 -8.9645386E-5 -1.5258789E-4 -2.117157E-4 -1.5258789E-4 -3.3950806E-4c0 -1.2779236E-4 6.1035156E-5 -2.4986267E-4 1.5258789E-4 -3.3950806E-4l10.690018 -10.689337l0 0c5.9039307 -5.903933 15.4760895 -5.903933 21.38002 0l19.397919 19.397924l0 0c5.9039307 5.9039307 5.9039307 15.476097 0 21.380032l-10.690002 10.690014l0 0c-1.8310547E-4 1.9073486E-4 -4.8828125E-4 1.9073486E-4 -6.713867E-4 0z" fill-rule="evenodd"/><path stroke="#073763" stroke-width="8.0" stroke-linejoin="round" stroke-linecap="butt" d="m278.10266 63.028202l-40.777954 -40.777954c-9.1552734E-5 -8.9645386E-5 -1.5258789E-4 -2.117157E-4 -1.5258789E-4 -3.3950806E-4c0 -1.2779236E-4 6.1035156E-5 -2.4986267E-4 1.5258789E-4 -3.3950806E-4l10.690018 -10.689337l0 0c5.9039307 -5.903933 15.4760895 -5.903933 21.38002 0l19.397919 19.397924l0 0c5.9039307 5.9039307 5.9039307 15.476097 0 21.380032l-10.690002 10.690014l0 0c-1.8310547E-4 1.9073486E-4 -4.8828125E-4 1.9073486E-4 -6.713867E-4 0z" fill-rule="evenodd"/><path fill="#000000" fill-opacity="0.0" d="m92.82202 248.25688l-71.56743 30.834l30.834013 -71.56741z" fill-rule="evenodd"/><path stroke="#073763" stroke-width="8.0" stroke-linejoin="round" stroke-linecap="butt" d="m92.82202 248.25688l-71.56743 30.834l30.834013 -71.56741z" fill-rule="evenodd"/><path fill="#000000" fill-opacity="0.0" d="m52.05922 207.51622l190.68315 -190.68315" fill-rule="evenodd"/><path stroke="#073763" stroke-width="8.0" stroke-linejoin="round" stroke-linecap="butt" d="m52.05922 207.51622l190.68315 -190.68315" fill-rule="evenodd"/><path fill="#000000" fill-opacity="0.0" d="m79.24686 234.68231l164.91576 -164.91577" fill-rule="evenodd"/><path stroke="#073763" stroke-width="8.0" stroke-linejoin="round" stroke-linecap="butt" d="m79.24686 234.68231l164.91576 -164.91577" fill-rule="evenodd"/><path fill="#073763" d="m44.895123 266.4967l-19.420197 8.37384l8.373848 -19.420181z" fill-rule="evenodd"/><path stroke="#073763" stroke-width="1.0" stroke-linejoin="round" stroke-linecap="butt" d="m44.895123 266.4967l-19.420197 8.37384l8.373848 -19.420181z" fill-rule="evenodd"/><path fill="#000000" fill-opacity="0.0" d="m256.94348 81.12143l-39.597595 -39.597603" fill-rule="evenodd"/><path stroke="#073763" stroke-width="8.0" stroke-linejoin="round" stroke-linecap="butt" d="m256.94348 81.12143l-39.597595 -39.597603" fill-rule="evenodd"/><path fill="#000000" fill-opacity="0.0" d="m266.7566 71.30833l-39.59761 -39.597603" fill-rule="evenodd"/><path stroke="#073763" stroke-width="8.0" stroke-linejoin="round" stroke-linecap="butt" d="m266.7566 71.30833l-39.59761 -39.597603" fill-rule="evenodd"/><path fill="#000000" fill-opacity="0.0" d="m92.831696 248.26715l192.53165 -192.53165" fill-rule="evenodd"/><path stroke="#073763" stroke-width="8.0" stroke-linejoin="round" stroke-linecap="butt" d="m92.831696 248.26715l192.53165 -192.53165" fill-rule="evenodd"/><path fill="#000000" fill-opacity="0.0" d="m65.66202 221.09746l164.91576 -164.91576" fill-rule="evenodd"/><path stroke="#073763" stroke-width="8.0" stroke-linejoin="round" stroke-linecap="butt" d="m65.66202 221.09746l164.91576 -164.91576" fill-rule="evenodd"/><path fill="#000000" fill-opacity="0.0" d="m278.1029 63.028454l-39.597595 -39.597603" fill-rule="evenodd"/><path stroke="#073763" stroke-width="8.0" stroke-linejoin="round" stroke-linecap="butt" d="m278.1029 63.028454l-39.597595 -39.597603" fill-rule="evenodd"/></g></svg>