<svg version="1.1" viewBox="0.0 0.0 434.6456692913386 434.6456692913386" fill="none" stroke="none" stroke-linecap="square" stroke-miterlimit="10" xmlns:xlink="http://www.w3.org/1999/xlink" xmlns="http://www.w3.org/2000/svg"><clipPath id="g8dbf6bf804_0_8.0"><path d="m0 0l434.64566 0l0 434.64566l-434.64566 0l0 -434.64566z" clip-rule="nonzero"/></clipPath><g clip-path="url(#g8dbf6bf804_0_8.0)"><path fill="#000000" fill-opacity="0.0" d="m0 0l434.64566 0l0 434.64566l-434.64566 0z" fill-rule="evenodd"/><path fill="#0096da" d="m146.15486 30.829397l179.87401 136.0l-179.87401 136.00002z" fill-rule="evenodd"/><path stroke="#0096da" stroke-width="24.0" stroke-linejoin="round" stroke-linecap="butt" d="m146.15486 30.829397l179.87401 136.0l-179.87401 136.00002z" fill-rule="evenodd"/><path fill="#073763" d="m99.64367 243.31532c4.278496 -4.8755035 33.929497 -27.760498 62.585503 -56.018494c28.65599 -28.25801 42.486496 -44.77501 58.30699 -56.317c15.820511 -11.542007 21.989502 1.6914978 25.372498 7.263489c3.3830109 5.572006 13.6315 34.9245 15.522003 39.99901c1.2935181 6.9649963 -4.975006 8.656494 -7.7610016 2.0894928c-2.7859955 -6.5670013 -9.850494 -27.660995 -14.327988 -37.809998c-4.4775085 -10.149002 -10.049515 -8.955002 -18.009506 -2.0894928c-7.9600067 6.865494 -21.093994 22.68599 -51.043503 51.242493c-29.949493 28.556503 -58.108 52.635498 -64.674995 56.8145c-6.5670013 4.179001 -10.248505 -0.29849243 -5.970001 -5.173996z" fill-rule="evenodd"/><path stroke="#073763" stroke-width="8.0" stroke-linejoin="round" stroke-linecap="butt" d="m99.64367 243.31532c4.278496 -4.8755035 33.929497 -27.760498 62.585503 -56.018494c28.65599 -28.25801 42.486496 -44.77501 58.30699 -56.317c15.820511 -11.542007 21.989502 1.6914978 25.372498 7.263489c3.3830109 5.572006 13.6315 34.9245 15.522003 39.99901c1.2935181 6.9649963 -4.975006 8.656494 -7.7610016 2.0894928c-2.7859955 -6.5670013 -9.850494 -27.660995 -14.327988 -37.809998c-4.4775085 -10.149002 -10.049515 -8.955002 -18.009506 -2.0894928c-7.9600067 6.865494 -21.093994 22.68599 -51.043503 51.242493c-29.949493 28.556503 -58.108 52.635498 -64.674995 56.8145c-6.5670013 4.179001 -10.248505 -0.29849243 -5.970001 -5.173996z" fill-rule="evenodd"/><path fill="#073763" d="m256.64844 109.16368l30.758026 -13.721474l7.0399475 -32.91551l22.55893 24.98936l33.50116 -3.4861832l-16.815826 29.165741l13.664917 30.760925l-32.95169 -6.9639435l-25.055786 22.497498l-3.5494385 -33.469704z" fill-rule="evenodd"/><path stroke="#073763" stroke-width="12.0" stroke-linejoin="round" stroke-linecap="butt" d="m256.64844 109.16368l30.758026 -13.721474l7.0399475 -32.91551l22.55893 24.98936l33.50116 -3.4861832l-16.815826 29.165741l13.664917 30.760925l-32.95169 -6.9639435l-25.055786 22.497498l-3.5494385 -33.469704z" fill-rule="evenodd"/><path fill="#000000" fill-opacity="0.0" d="m0 306.69815l434.64566 0l0 82.99213l-434.64566 0z" fill-rule="evenodd"/><path fill="#073763" d="m117.21733 350.8319q0 2.859375 -0.75 5.515625q-0.734375 2.640625 -2.078125 4.953125q-1.34375 2.296875 -3.25 4.203125q-1.890625 1.90625 -4.1875 3.265625q-2.296875 1.359375 -4.953125 2.09375q-2.65625 0.75 -5.515625 0.75q-2.859375 0 -5.5 -0.75q-2.640625 -0.734375 -4.953125 -2.09375q-2.3125 -1.359375 -4.21875 -3.265625q-1.90625 -1.90625 -3.265625 -4.203125q-1.359375 -2.3125 -2.09375 -4.953125q-0.734375 -2.65625 -0.734375 -5.515625q0 -2.84375 0.734375 -5.5q0.734375 -2.671875 2.09375 -4.96875q1.359375 -2.296875 3.265625 -4.1875q1.90625 -1.90625 4.21875 -3.25q2.3125 -1.34375 4.953125 -2.078125q2.640625 -0.75 5.5 -0.75q2.859375 0 5.515625 0.75q2.65625 0.734375 4.953125 2.078125q2.296875 1.34375 4.1875 3.25q1.90625 1.890625 3.25 4.1875q1.34375 2.296875 2.078125 4.96875q0.75 2.65625 0.75 5.5zm-7.96875 0q0 -2.625 -1.015625 -4.953125q-1.0 -2.34375 -2.734375 -4.0625q-1.71875 -1.734375 -4.0625 -2.734375q-2.328125 -1.015625 -4.953125 -1.015625q-2.65625 0 -4.984375 1.015625q-2.328125 1.0 -4.0625 2.734375q-1.734375 1.71875 -2.75 4.0625q-1.0 2.328125 -1.0 4.953125q0 2.640625 1.0 4.953125q1.015625 2.296875 2.75 4.03125q1.734375 1.734375 4.0625 2.75q2.328125 1.0 4.984375 1.0q2.625 0 4.953125 -1.0q2.34375 -1.015625 4.0625 -2.75q1.734375 -1.734375 2.734375 -4.03125q1.015625 -2.3125 1.015625 -4.953125zm53.076035 19.90625l-8.015625 0l0 -28.671875q0 -0.828125 -0.328125 -1.546875q-0.3125 -0.734375 -0.859375 -1.28125q-0.546875 -0.546875 -1.28125 -0.859375q-0.71875 -0.3125 -1.5625 -0.3125q-0.84375 0 -1.578125 0.3125q-0.71875 0.3125 -1.265625 0.859375q-0.546875 0.546875 -0.859375 1.28125q-0.296875 0.71875 -0.296875 1.546875l0 28.671875l-8.03125 0l0 -28.671875q0 -0.828125 -0.3125 -1.546875q-0.3125 -0.734375 -0.859375 -1.28125q-0.53125 -0.546875 -1.265625 -0.859375q-0.734375 -0.3125 -1.5625 -0.3125q-0.84375 0 -1.578125 0.3125q-0.71875 0.3125 -1.265625 0.859375q-0.546875 0.546875 -0.859375 1.28125q-0.296875 0.71875 -0.296875 1.546875l0 28.671875l-8.046875 0l0 -28.671875q0 -2.484375 0.9375 -4.671875q0.9375 -2.203125 2.578125 -3.84375q1.640625 -1.640625 3.828125 -2.578125q2.203125 -0.9375 4.703125 -0.9375q2.234375 0 4.296875 0.796875q2.078125 0.796875 3.734375 2.3125q1.65625 -1.515625 3.703125 -2.3125q2.0625 -0.796875 4.296875 -0.796875q2.5 0 4.6875 0.9375q2.203125 0.9375 3.84375 2.578125q1.640625 1.640625 2.578125 3.84375q0.9375 2.1875 0.9375 4.671875l0 28.671875zm30.780243 -16.046875l0 -8.03125q0 -1.640625 -0.625 -3.109375q-0.625 -1.484375 -1.71875 -2.5625q-1.09375 -1.09375 -2.5625 -1.71875q-1.46875 -0.640625 -3.125 -0.640625q-1.65625 0 -3.125 0.640625q-1.46875 0.625 -2.5625 1.71875q-1.078125 1.078125 -1.71875 2.5625q-0.625 1.46875 -0.625 3.109375l0 8.03125l16.0625 0zm8.03125 16.046875l-8.03125 0l0 -8.03125l-16.0625 0l0 8.03125l-8.0 0l0 -24.078125q0 -3.328125 1.25 -6.25q1.265625 -2.921875 3.4375 -5.109375q2.171875 -2.1875 5.09375 -3.4375q2.921875 -1.265625 6.25 -1.265625q3.328125 0 6.25 1.265625q2.9375 1.25 5.109375 3.4375q2.1875 2.1875 3.4375 5.109375q1.265625 2.921875 1.265625 6.25l0 24.078125z" fill-rule="nonzero"/><path fill="#0096da" d="m236.21854 370.73816l-28.109375 0l0 -40.140625l8.03125 0l0 32.109375l20.078125 0l0 8.03125zm36.275055 -12.03125q0 2.484375 -0.953125 4.671875q-0.953125 2.1875 -2.59375 3.828125q-1.625 1.625 -3.8125 2.578125q-2.1875 0.953125 -4.671875 0.953125l-20.07811 0l0 -40.140625l20.07811 0q2.484375 0 4.671875 0.953125q2.1875 0.953125 3.8125 2.59375q1.640625 1.625 2.59375 3.8125q0.953125 2.1875 0.953125 4.671875q0 1.125 -0.3125 2.296875q-0.296875 1.171875 -0.859375 2.265625q-0.5625 1.09375 -1.34375 2.0q-0.78125 0.890625 -1.734375 1.46875q0.984375 0.546875 1.765625 1.453125q0.78125 0.90625 1.34375 2.0q0.5625 1.09375 0.84375 2.28125q0.296875 1.1875 0.296875 2.3125zm-24.07811 4.0l12.04686 0q0.84375 0 1.5625 -0.3125q0.734375 -0.3125 1.28125 -0.84375q0.546875 -0.546875 0.84375 -1.28125q0.3125 -0.734375 0.3125 -1.5625q0 -0.84375 -0.3125 -1.5625q-0.296875 -0.734375 -0.84375 -1.28125q-0.546875 -0.546875 -1.28125 -0.859375q-0.71875 -0.3125 -1.5625 -0.3125l-12.04686 0l0 8.015625zm0 -16.046875l12.04686 0q0.84375 0 1.5625 -0.296875q0.734375 -0.3125 1.28125 -0.859375q0.546875 -0.546875 0.84375 -1.28125q0.3125 -0.75 0.3125 -1.59375q0 -0.828125 -0.3125 -1.5625q-0.296875 -0.734375 -0.84375 -1.265625q-0.546875 -0.546875 -1.28125 -0.859375q-0.71875 -0.3125 -1.5625 -0.3125l-12.04686 0l0 8.03125zm61.806442 8.03125q0 3.34375 -1.265625 6.265625q-1.25 2.921875 -3.4375 5.09375q-2.171875 2.171875 -5.109375 3.4375q-2.921875 1.25 -6.25 1.25q-3.328125 0 -6.25 -1.25q-2.921875 -1.265625 -5.09375 -3.4375q-2.171875 -2.171875 -3.4375 -5.09375q-1.25 -2.921875 -1.25 -6.265625l0 -24.09375l8.0 0l0 24.09375q0 1.65625 0.625 3.109375q0.640625 1.453125 1.71875 2.546875q1.09375 1.09375 2.5625 1.734375q1.46875 0.625 3.125 0.625q1.65625 0 3.125 -0.625q1.46875 -0.640625 2.5625 -1.734375q1.09375 -1.09375 1.71875 -2.546875q0.625 -1.453125 0.625 -3.109375l0 -24.09375l8.03125 0l0 24.09375zm46.816772 16.046875l-8.015625 0l0 -28.671875q0 -0.828125 -0.328125 -1.546875q-0.3125 -0.734375 -0.859375 -1.28125q-0.546875 -0.546875 -1.28125 -0.859375q-0.71875 -0.3125 -1.5625 -0.3125q-0.84375 0 -1.578125 0.3125q-0.71875 0.3125 -1.265625 0.859375q-0.546875 0.546875 -0.859375 1.28125q-0.296875 0.71875 -0.296875 1.546875l0 28.671875l-8.03125 0l0 -28.671875q0 -0.828125 -0.3125 -1.546875q-0.3125 -0.734375 -0.859375 -1.28125q-0.53125 -0.546875 -1.265625 -0.859375q-0.734375 -0.3125 -1.5625 -0.3125q-0.84375 0 -1.578125 0.3125q-0.71875 0.3125 -1.265625 0.859375q-0.546875 0.546875 -0.859375 1.28125q-0.296875 0.71875 -0.296875 1.546875l0 28.671875l-8.046875 0l0 -28.671875q0 -2.484375 0.9375 -4.671875q0.9375 -2.203125 2.578125 -3.84375q1.640625 -1.640625 3.828125 -2.578125q2.203125 -0.9375 4.703125 -0.9375q2.234375 0 4.296875 0.796875q2.078125 0.796875 3.734375 2.3125q1.65625 -1.515625 3.703125 -2.3125q2.0625 -0.796875 4.296875 -0.796875q2.5 0 4.6875 0.9375q2.203125 0.9375 3.84375 2.578125q1.640625 1.640625 2.578125 3.84375q0.9375 2.1875 0.9375 4.671875l0 28.671875z" fill-rule="nonzero"/></g></svg>