<svg version="1.1" viewBox="0.0 0.0 270.0 300.0" fill="none" stroke="none" stroke-linecap="square" stroke-miterlimit="10" xmlns:xlink="http://www.w3.org/1999/xlink" xmlns="http://www.w3.org/2000/svg"><clipPath id="g8dc575adb8_0_0.0"><path d="m0 0l270.0 0l0 300.0l-270.0 0l0 -300.0z" clip-rule="nonzero"/></clipPath><g clip-path="url(#g8dc575adb8_0_0.0)"><path fill="#000000" fill-opacity="0.0" d="m0 0l270.0 0l0 300.0l-270.0 0z" fill-rule="evenodd"/><path fill="#0096da" d="m56.90814 14.0l179.87401 136.0l-179.87401 136.0z" fill-rule="evenodd"/><path stroke="#0096da" stroke-width="24.0" stroke-linejoin="round" stroke-linecap="butt" d="m56.90814 14.0l179.87401 136.0l-179.87401 136.0z" fill-rule="evenodd"/><path fill="#073763" d="m10.396948 226.48593c4.2785006 -4.8755035 33.929497 -27.760498 62.585495 -56.01851c28.656006 -28.257996 42.486504 -44.774994 58.307 -56.316994c15.820511 -11.542 21.989502 1.6914978 25.372498 7.2634964c3.3830109 5.5719986 13.6315 34.9245 15.522003 39.99901c1.2935028 6.9649963 -4.974991 8.656494 -7.7610016 2.0894928c-2.7859955 -6.5670013 -9.850494 -27.660995 -14.327988 -37.809998c-4.4775085 -10.149002 -10.049515 -8.955002 -18.009506 -2.0895004c-7.959999 6.8655014 -21.094002 22.685997 -51.043503 51.2425c-29.949497 28.556503 -58.107998 52.635498 -64.675 56.8145c-6.5669994 4.179001 -10.248499 -0.2985077 -5.9699993 -5.173996z" fill-rule="evenodd"/><path stroke="#073763" stroke-width="8.0" stroke-linejoin="round" stroke-linecap="butt" d="m10.396948 226.48593c4.2785006 -4.8755035 33.929497 -27.760498 62.585495 -56.01851c28.656006 -28.257996 42.486504 -44.774994 58.307 -56.316994c15.820511 -11.542 21.989502 1.6914978 25.372498 7.2634964c3.3830109 5.5719986 13.6315 34.9245 15.522003 39.99901c1.2935028 6.9649963 -4.974991 8.656494 -7.7610016 2.0894928c-2.7859955 -6.5670013 -9.850494 -27.660995 -14.327988 -37.809998c-4.4775085 -10.149002 -10.049515 -8.955002 -18.009506 -2.0895004c-7.959999 6.8655014 -21.094002 22.685997 -51.043503 51.2425c-29.949497 28.556503 -58.107998 52.635498 -64.675 56.8145c-6.5669994 4.179001 -10.248499 -0.2985077 -5.9699993 -5.173996z" fill-rule="evenodd"/><path fill="#073763" d="m167.40172 92.33428l30.75801 -13.721466l7.039963 -32.915516l22.558945 24.989368l33.50116 -3.4861908l-16.815826 29.165749l13.664917 30.760925l-32.951706 -6.9639435l-25.055786 22.497498l-3.5494385 -33.469704z" fill-rule="evenodd"/><path stroke="#073763" stroke-width="12.0" stroke-linejoin="round" stroke-linecap="butt" d="m167.40172 92.33428l30.75801 -13.721466l7.039963 -32.915516l22.558945 24.989368l33.50116 -3.4861908l-16.815826 29.165749l13.664917 30.760925l-32.951706 -6.9639435l-25.055786 22.497498l-3.5494385 -33.469704z" fill-rule="evenodd"/></g></svg>